# xmcd
#
# Track frame offsets:
#	150
#	21763
#	62921
#	91985
#	110025
#	148253
#	175504
#
# Disc length: 2746 seconds
#
# Revision: 0
# Processed by: cddbd v1.5.2PL0 Copyright (c) Steve Scherf et al.
# Submitted via: audiograbber 1.83.01
#
DISCID=5d0ab807
DTITLE=John Mayall's Bluesbreakers - Behind The Iron Curtain (Live)
DYEAR=1985
DGENRE=Blues
TTITLE0=Somebody's Acting  Like A Child (Live 06.06.1985 Open Air in Szeged, Hu
TTITLE0=ngary)
TTITLE1=Rolling With The Blues (Live 06.06.1985 Open Air in Szeged, Hungary)
TTITLE2=The Laws Must Change (Live 06.06.1985 Open Air in Szeged, Hungary)
TTITLE3=Parchman Farm (Live 06.06.1985 Open Air in Szeged, Hungary)
TTITLE4=Have You Heard (Live 06.06.1985 Open Air in Szeged, Hungary)
TTITLE5=Fly Tomorrow (Live 06.06.1985 Open Air in Szeged, Hungary)
TTITLE6=Steppin' Out (Live 06.06.1985 Open Air in Szeged, Hungary)
EXTD=YEAR: 1991 - 2019\n\n(Live 06.06.1985 Open Air in Szeged, Hungary]\n\nMAR
EXTD=O
EXTT0=
EXTT1=
EXTT2=
EXTT3=
EXTT4=
EXTT5=
EXTT6=
PLAYORDER=
